G04 Layer: BottomLayer*
G04 EasyEDA v6.4.12, 2020-12-31T14:29:20+01:00*
G04 6604612f69a4476882a07405e2b540c3,2d81dc3172f949189a8efcc8dd8a18f6,10*
G04 Gerber Generator version 0.2*
G04 Scale: 100 percent, Rotated: No, Reflected: No *
G04 Dimensions in millimeters *
G04 leading zeros omitted , absolute positions ,4 integer and 5 decimal *
%FSLAX45Y45*%
%MOMM*%

%ADD11C,1.0000*%
%ADD12C,0.6100*%
%ADD13C,1.8796*%
%ADD14C,1.6510*%
%ADD15C,2.1590*%
%ADD16R,1.5748X1.5748*%
%ADD18C,1.2000*%
%ADD19R,1.3970X1.3970*%
%ADD20C,1.3970*%

%LPD*%
D11*
X8497082Y6065753D02*
G01*
X8497082Y5081757D01*
X9066042Y4512797D01*
X9066042Y2103099D01*
X9848870Y6065753D02*
G01*
X9848870Y5416529D01*
X10482600Y4782799D01*
X10330200Y2357099D02*
G01*
X10330200Y4630399D01*
X10482600Y4782799D01*
X10330200Y2357099D02*
G01*
X10262636Y2357099D01*
X9754636Y1849099D01*
X9568200Y1849099D01*
X9568200Y1595099D02*
G01*
X9568200Y1849099D01*
X11201420Y4378939D02*
G01*
X11244600Y4422119D01*
X11244600Y4782799D01*
X695980Y1661139D02*
G01*
X964458Y1392661D01*
X2227346Y1392661D01*
X2496078Y1661139D01*
X3254776Y1661139D02*
G01*
X3254776Y2094209D01*
X2617998Y2730987D01*
X2617998Y3277849D01*
X2496078Y1661139D02*
G01*
X2760746Y1396217D01*
X3122442Y1396217D01*
X3254776Y1528805D01*
X3254776Y1661139D01*
X4295922Y1661139D02*
G01*
X3254776Y1661139D01*
X6863608Y1394185D02*
G01*
X6362974Y1394185D01*
X6096020Y1661139D01*
X7896118Y1394185D02*
G01*
X6863608Y1394185D01*
X6863608Y1394185D02*
G01*
X6863608Y2100813D01*
X6217940Y2746735D01*
X6217940Y3277849D01*
X7896118Y1394185D02*
G01*
X7896118Y1661139D01*
X9568200Y579099D02*
G01*
X8710950Y579099D01*
X7896118Y1394185D01*
X12588514Y4726919D02*
G01*
X11983232Y4726919D01*
X11375664Y4119351D01*
X10963168Y4119351D01*
X10703580Y4378939D01*
X12616200Y4516099D02*
G01*
X12616200Y4699233D01*
X12588514Y4726919D01*
X12588514Y4726919D02*
G01*
X12743200Y4881605D01*
X12743200Y5087599D01*
X10317500Y6065753D02*
G01*
X10317500Y5836899D01*
X10317500Y5836899D02*
G01*
X10732028Y5422371D01*
X10732028Y4407387D01*
X10703580Y4378939D01*
X12616200Y3213587D02*
G01*
X12616200Y4516099D01*
X12616200Y3213587D02*
G01*
X12616200Y2992099D01*
X13108198Y2992099D02*
G01*
X13108198Y3060171D01*
X12954782Y3213587D01*
X12616200Y3213587D01*
X9568200Y1341099D02*
G01*
X9643638Y1341099D01*
X9790450Y1194287D01*
X9790450Y726165D01*
X9643384Y579099D01*
X9568200Y579099D01*
X8272800Y3893799D02*
G01*
X8802898Y3363701D01*
X8802898Y3360145D01*
X12243582Y1707113D02*
G01*
X12862326Y2325603D01*
X12862326Y2992099D01*
X4793762Y1661139D02*
G01*
X4802652Y1669775D01*
X4802652Y1988799D01*
X3063260Y6217899D02*
G01*
X3063260Y5989045D01*
X3063260Y5989045D02*
G01*
X3292114Y5759937D01*
X3292114Y3499083D01*
X4802652Y1988799D01*
X2993918Y1661139D02*
G01*
X3010174Y1677649D01*
X3010174Y1988799D01*
X1999000Y6217899D02*
G01*
X1999000Y2999973D01*
X3010174Y1988799D01*
X1193820Y1661139D02*
G01*
X1217950Y1685269D01*
X1217950Y1988799D01*
X934740Y6217899D02*
G01*
X934740Y5989045D01*
X934740Y5989045D02*
G01*
X580664Y5634715D01*
X580664Y2626085D01*
X1217950Y1988799D01*
X6593860Y1661139D02*
G01*
X6594876Y1662155D01*
X6594876Y1988799D01*
X4127520Y6217899D02*
G01*
X4127520Y5989045D01*
X4127520Y5989045D02*
G01*
X5270774Y4845537D01*
X5270774Y3312901D01*
X6594876Y1988799D01*
X8393958Y1661139D02*
G01*
X8387100Y1667743D01*
X8387100Y1988799D01*
X5191780Y6217899D02*
G01*
X5420634Y6217899D01*
X5420634Y6217899D02*
G01*
X5420634Y5989045D01*
X5705368Y5704311D01*
X5776742Y5704311D01*
X7067062Y4413991D01*
X7067062Y3308837D01*
X8387100Y1988799D01*
X1071900Y3893799D02*
G01*
X1071900Y3893799D01*
X1071900Y3277849D01*
X1465600Y6066007D02*
G01*
X1465600Y5049499D01*
X1071900Y4655799D01*
X2872252Y3893799D02*
G01*
X2871998Y3893545D01*
X2871998Y3277849D01*
X2533924Y6066007D02*
G01*
X2533924Y4993873D01*
X2872252Y4655799D01*
X4672350Y3893799D02*
G01*
X4672096Y3893291D01*
X4672096Y3277849D01*
X3602502Y6066007D02*
G01*
X3602502Y5837153D01*
X3602502Y5837153D02*
G01*
X4672350Y4767305D01*
X4672350Y4655799D01*
X6472702Y3893799D02*
G01*
X6471940Y3893291D01*
X6471940Y3277849D01*
X4670826Y6066007D02*
G01*
X4899934Y6066007D01*
X4899934Y6066007D02*
G01*
X6310142Y4655799D01*
X6472702Y4655799D01*
X10330200Y1595099D02*
G01*
X10265684Y1595099D01*
X10103632Y1433047D01*
X10103632Y485881D01*
X10351282Y238231D01*
X10910844Y238231D01*
X11051814Y379455D01*
X11051814Y1923013D01*
X10833628Y2141199D01*
X10800100Y2141199D01*
X10330200Y2103099D02*
G01*
X10392176Y2103099D01*
X10553212Y1942063D01*
X10553212Y1697461D01*
X10769620Y1480799D01*
X10800100Y1480799D01*
X11562100Y1480799D02*
G01*
X11593850Y1480799D01*
X11843024Y1730227D01*
X11843024Y3612367D01*
X12370328Y4139417D01*
X12370328Y4516099D01*
X12124202Y4516099D02*
G01*
X11562100Y3953997D01*
X11562100Y2471399D01*
X9568200Y833099D02*
G01*
X9429262Y833099D01*
X8749812Y1512549D01*
X8749812Y3130021D01*
X8257560Y3622273D01*
X8197616Y3622273D01*
X7675900Y4143989D01*
X7675900Y6065753D01*
X9568200Y2357099D02*
G01*
X9568200Y5776701D01*
X9050294Y6294861D01*
X8315472Y6294861D01*
X8086618Y6065753D01*
X13108198Y4516099D02*
G01*
X13329686Y4294611D01*
X13329686Y1912345D01*
X11654810Y237469D01*
X11458468Y237469D01*
X11301242Y394695D01*
X11301242Y1578081D01*
X11534160Y1810999D01*
X11562100Y1810999D01*
X12124202Y2992099D02*
G01*
X12124202Y2781787D01*
X11562100Y490199D02*
G01*
X11593088Y490199D01*
X12043430Y940541D01*
X12043430Y2701015D01*
X12124202Y2781787D01*
X8907800Y5836899D02*
G01*
X9266448Y5478251D01*
X9266448Y1279123D01*
X9371350Y1174221D01*
X8907800Y6065753D02*
G01*
X8907800Y5836899D01*
D13*
G01*
X4802525Y2750799D03*
G01*
X4802525Y1988799D03*
G01*
X3010250Y2750774D03*
G01*
X3010250Y1988774D03*
G01*
X1217950Y2750799D03*
G01*
X1217950Y1988799D03*
G01*
X6594800Y2750799D03*
G01*
X6594800Y1988799D03*
G01*
X8387100Y2750799D03*
G01*
X8387100Y1988799D03*
G01*
X10482600Y4782799D03*
G01*
X11244600Y4782799D03*
D14*
G01*
X1071900Y3277925D03*
G01*
X817900Y3277925D03*
D13*
G01*
X1071925Y4655774D03*
G01*
X1071925Y3893774D03*
D14*
G01*
X2871922Y3277951D03*
G01*
X2617922Y3277951D03*
D13*
G01*
X2872150Y4655774D03*
G01*
X2872150Y3893774D03*
D14*
G01*
X4671969Y3277951D03*
G01*
X4417969Y3277951D03*
D13*
G01*
X4672350Y4655774D03*
G01*
X4672350Y3893774D03*
D14*
G01*
X6471991Y3277951D03*
G01*
X6217991Y3277951D03*
D13*
G01*
X6472575Y4655774D03*
G01*
X6472575Y3893774D03*
D14*
G01*
X8272012Y3277925D03*
G01*
X8018012Y3277925D03*
D13*
G01*
X8272800Y4655774D03*
G01*
X8272800Y3893774D03*
D15*
G01*
X695980Y411485D03*
G01*
X1193845Y411485D03*
G01*
X1193845Y1661165D03*
G01*
X695980Y1661165D03*
G01*
X2496002Y411459D03*
G01*
X2993842Y411459D03*
G01*
X2993842Y1661139D03*
G01*
X2496002Y1661139D03*
G01*
X4295998Y411485D03*
G01*
X4793838Y411485D03*
G01*
X4793838Y1661165D03*
G01*
X4295998Y1661165D03*
G01*
X6095969Y411459D03*
G01*
X6593809Y411459D03*
G01*
X6593809Y1661139D03*
G01*
X6095969Y1661139D03*
G01*
X7895991Y411459D03*
G01*
X8393831Y411459D03*
G01*
X8393831Y1661139D03*
G01*
X7895991Y1661139D03*
G01*
X10703580Y3129259D03*
G01*
X11201420Y3129259D03*
G01*
X11201420Y4378939D03*
G01*
X10703580Y4378939D03*
D14*
G01*
X12489200Y5087599D03*
G01*
X12743200Y5087599D03*
D16*
G01*
X1999000Y6217899D03*
G01*
X934740Y6217899D03*
G01*
X5191780Y6217899D03*
G01*
X1465600Y6066109D03*
G01*
X4127520Y6217899D03*
G01*
X2534025Y6066083D03*
G01*
X3602451Y6066083D03*
G01*
X4670851Y6066083D03*
G01*
X5739277Y6066083D03*
G01*
X6256040Y6217899D03*
G01*
X6807677Y6066083D03*
G01*
X3063260Y6217899D03*
D13*
G01*
X10800100Y2141199D03*
G01*
X11562100Y2141199D03*
G01*
X10800100Y1480799D03*
G01*
X11562100Y1480799D03*
G01*
X10800100Y2471399D03*
G01*
X11562100Y2471399D03*
G01*
X10800100Y1150599D03*
G01*
X11562100Y1150599D03*
G01*
X10800100Y820399D03*
G01*
X11562100Y820399D03*
G01*
X10800100Y490199D03*
G01*
X11562100Y490199D03*
D16*
G01*
X7675900Y6065804D03*
G01*
X8086542Y6065804D03*
G01*
X8497158Y6065804D03*
G01*
X8907800Y6065804D03*
D13*
G01*
X10800100Y1810999D03*
G01*
X11562100Y1810999D03*
G01*
X11333500Y5087599D03*
G01*
X12095500Y5087599D03*
D16*
G01*
X10317500Y6065804D03*
G36*
X12064202Y3052097D02*
G01*
X12184202Y3052097D01*
X12184202Y2932097D01*
X12064202Y2932097D01*
G37*
D18*
G01*
X12370201Y2992099D03*
G01*
X12616200Y2992099D03*
G01*
X12862199Y2992099D03*
G01*
X13108198Y2992099D03*
G01*
X13108198Y4516099D03*
G01*
X12862199Y4516099D03*
G01*
X12616200Y4516099D03*
G01*
X12370201Y4516099D03*
G01*
X12124202Y4516099D03*
D16*
G01*
X9848743Y6065804D03*
D19*
G01*
X9568200Y2357099D03*
D20*
G01*
X9568200Y2103099D03*
G01*
X9568200Y1849099D03*
G01*
X9568200Y1595099D03*
G01*
X9568200Y1341099D03*
G01*
X9568200Y1087099D03*
G01*
X9568200Y833099D03*
G01*
X9568200Y579099D03*
G01*
X10330200Y579099D03*
G01*
X10330200Y833099D03*
G01*
X10330200Y1087099D03*
G01*
X10330200Y1341099D03*
G01*
X10330200Y1595099D03*
G01*
X10330200Y1849099D03*
G01*
X10330200Y2103099D03*
G01*
X10330200Y2357099D03*
D12*
G01*
X9066042Y2103099D03*
G01*
X8802898Y3360145D03*
G01*
X12243582Y1707113D03*
G01*
X9371350Y1174221D03*
M02*
