G04 Layer: TopSolderMaskLayer*
G04 EasyEDA v6.4.12, 2020-12-31T14:29:20+01:00*
G04 6604612f69a4476882a07405e2b540c3,2d81dc3172f949189a8efcc8dd8a18f6,10*
G04 Gerber Generator version 0.2*
G04 Scale: 100 percent, Rotated: No, Reflected: No *
G04 Dimensions in millimeters *
G04 leading zeros omitted , absolute positions ,4 integer and 5 decimal *
%FSLAX45Y45*%
%MOMM*%

%ADD27C,2.0828*%
%ADD28C,1.8542*%
%ADD29C,2.3622*%
%ADD32C,1.4032*%
%ADD34C,1.6002*%

%LPD*%
D27*
G01*
X4802525Y2750799D03*
G01*
X4802525Y1988799D03*
G01*
X3010250Y2750774D03*
G01*
X3010250Y1988774D03*
G01*
X1217950Y2750799D03*
G01*
X1217950Y1988799D03*
G01*
X6594800Y2750799D03*
G01*
X6594800Y1988799D03*
G01*
X8387100Y2750799D03*
G01*
X8387100Y1988799D03*
G01*
X10482600Y4782799D03*
G01*
X11244600Y4782799D03*
D28*
G01*
X1071900Y3277925D03*
G01*
X817900Y3277925D03*
D27*
G01*
X1071925Y4655774D03*
G01*
X1071925Y3893774D03*
D28*
G01*
X2871922Y3277951D03*
G01*
X2617922Y3277951D03*
D27*
G01*
X2872150Y4655774D03*
G01*
X2872150Y3893774D03*
D28*
G01*
X4671969Y3277951D03*
G01*
X4417969Y3277951D03*
D27*
G01*
X4672350Y4655774D03*
G01*
X4672350Y3893774D03*
D28*
G01*
X6471991Y3277951D03*
G01*
X6217991Y3277951D03*
D27*
G01*
X6472575Y4655774D03*
G01*
X6472575Y3893774D03*
D28*
G01*
X8272012Y3277925D03*
G01*
X8018012Y3277925D03*
D27*
G01*
X8272800Y4655774D03*
G01*
X8272800Y3893774D03*
D29*
G01*
X695980Y411485D03*
G01*
X1193845Y411485D03*
G01*
X1193845Y1661165D03*
G01*
X695980Y1661165D03*
G01*
X2496002Y411459D03*
G01*
X2993842Y411459D03*
G01*
X2993842Y1661139D03*
G01*
X2496002Y1661139D03*
G01*
X4295998Y411485D03*
G01*
X4793838Y411485D03*
G01*
X4793838Y1661165D03*
G01*
X4295998Y1661165D03*
G01*
X6095969Y411459D03*
G01*
X6593809Y411459D03*
G01*
X6593809Y1661139D03*
G01*
X6095969Y1661139D03*
G01*
X7895991Y411459D03*
G01*
X8393831Y411459D03*
G01*
X8393831Y1661139D03*
G01*
X7895991Y1661139D03*
G01*
X10703580Y3129259D03*
G01*
X11201420Y3129259D03*
G01*
X11201420Y4378939D03*
G01*
X10703580Y4378939D03*
D28*
G01*
X12489200Y5087599D03*
G01*
X12743200Y5087599D03*
G36*
X1910100Y6128999D02*
G01*
X1910100Y6306799D01*
X2087900Y6306799D01*
X2087900Y6128999D01*
G37*
G36*
X845840Y6128999D02*
G01*
X845840Y6306799D01*
X1023640Y6306799D01*
X1023640Y6128999D01*
G37*
G36*
X5102880Y6128999D02*
G01*
X5102880Y6306799D01*
X5280680Y6306799D01*
X5280680Y6128999D01*
G37*
G36*
X1376700Y5977107D02*
G01*
X1376700Y6154907D01*
X1554500Y6154907D01*
X1554500Y5977107D01*
G37*
G36*
X4038620Y6128999D02*
G01*
X4038620Y6306799D01*
X4216420Y6306799D01*
X4216420Y6128999D01*
G37*
G36*
X2445024Y5977107D02*
G01*
X2445024Y6154907D01*
X2622824Y6154907D01*
X2622824Y5977107D01*
G37*
G36*
X3513602Y5977107D02*
G01*
X3513602Y6154907D01*
X3691402Y6154907D01*
X3691402Y5977107D01*
G37*
G36*
X4581926Y5977107D02*
G01*
X4581926Y6154907D01*
X4759726Y6154907D01*
X4759726Y5977107D01*
G37*
G36*
X5650250Y5977107D02*
G01*
X5650250Y6154907D01*
X5828050Y6154907D01*
X5828050Y5977107D01*
G37*
G36*
X6167140Y6128999D02*
G01*
X6167140Y6306799D01*
X6344940Y6306799D01*
X6344940Y6128999D01*
G37*
G36*
X6718828Y5977107D02*
G01*
X6718828Y6154907D01*
X6896628Y6154907D01*
X6896628Y5977107D01*
G37*
G36*
X2974360Y6128999D02*
G01*
X2974360Y6306799D01*
X3152160Y6306799D01*
X3152160Y6128999D01*
G37*
D27*
G01*
X10800100Y2141199D03*
G01*
X11562100Y2141199D03*
G01*
X10800100Y1480799D03*
G01*
X11562100Y1480799D03*
G01*
X10800100Y2471399D03*
G01*
X11562100Y2471399D03*
G01*
X10800100Y1150599D03*
G01*
X11562100Y1150599D03*
G01*
X10800100Y820399D03*
G01*
X11562100Y820399D03*
G01*
X10800100Y490199D03*
G01*
X11562100Y490199D03*
G36*
X7587000Y5976853D02*
G01*
X7587000Y6154653D01*
X7764800Y6154653D01*
X7764800Y5976853D01*
G37*
G36*
X7997718Y5976853D02*
G01*
X7997718Y6154653D01*
X8175518Y6154653D01*
X8175518Y5976853D01*
G37*
G36*
X8408182Y5976853D02*
G01*
X8408182Y6154653D01*
X8585982Y6154653D01*
X8585982Y5976853D01*
G37*
G36*
X8818900Y5976853D02*
G01*
X8818900Y6154653D01*
X8996700Y6154653D01*
X8996700Y5976853D01*
G37*
G01*
X10800100Y1810999D03*
G01*
X11562100Y1810999D03*
G01*
X11333500Y5087599D03*
G01*
X12095500Y5087599D03*
G36*
X10228600Y5976853D02*
G01*
X10228600Y6154653D01*
X10406400Y6154653D01*
X10406400Y5976853D01*
G37*
G36*
X12054098Y2921995D02*
G01*
X12054098Y3062203D01*
X12194306Y3062203D01*
X12194306Y2921995D01*
G37*
D32*
G01*
X12370201Y2992099D03*
G01*
X12616200Y2992099D03*
G01*
X12862199Y2992099D03*
G01*
X13108198Y2992099D03*
G01*
X13108198Y4516099D03*
G01*
X12862199Y4516099D03*
G01*
X12616200Y4516099D03*
G01*
X12370201Y4516099D03*
G01*
X12124202Y4516099D03*
G36*
X9759970Y5976853D02*
G01*
X9759970Y6154653D01*
X9937770Y6154653D01*
X9937770Y5976853D01*
G37*
G36*
X9488190Y2277089D02*
G01*
X9488190Y2437109D01*
X9648210Y2437109D01*
X9648210Y2277089D01*
G37*
D34*
G01*
X9568200Y2103099D03*
G01*
X9568200Y1849099D03*
G01*
X9568200Y1595099D03*
G01*
X9568200Y1341099D03*
G01*
X9568200Y1087099D03*
G01*
X9568200Y833099D03*
G01*
X9568200Y579099D03*
G01*
X10330200Y579099D03*
G01*
X10330200Y833099D03*
G01*
X10330200Y1087099D03*
G01*
X10330200Y1341099D03*
G01*
X10330200Y1595099D03*
G01*
X10330200Y1849099D03*
G01*
X10330200Y2103099D03*
G01*
X10330200Y2357099D03*
M02*
