G04 Layer: TopLayer*
G04 EasyEDA v6.4.12, 2020-12-31T14:29:20+01:00*
G04 6604612f69a4476882a07405e2b540c3,2d81dc3172f949189a8efcc8dd8a18f6,10*
G04 Gerber Generator version 0.2*
G04 Scale: 100 percent, Rotated: No, Reflected: No *
G04 Dimensions in millimeters *
G04 leading zeros omitted , absolute positions ,4 integer and 5 decimal *
%FSLAX45Y45*%
%MOMM*%

%ADD11C,1.0000*%
%ADD12C,0.6100*%
%ADD13C,1.8796*%
%ADD14C,1.6510*%
%ADD15C,2.1590*%
%ADD16R,1.5748X1.5748*%
%ADD18C,1.2000*%
%ADD19R,1.3970X1.3970*%
%ADD20C,1.3970*%

%LPD*%
D11*
X12370328Y2992099D02*
G01*
X12370328Y1863831D01*
X12443988Y1790171D01*
X12443988Y1624309D01*
X11640078Y820399D01*
X11562100Y820399D01*
X9568200Y2103099D02*
G01*
X9066042Y2103099D01*
X3010174Y2750799D02*
G01*
X4802398Y2750799D01*
X4802652Y2750799D01*
X1217950Y2750799D02*
G01*
X3010174Y2750799D01*
X3010174Y2750799D01*
X6594876Y2750799D02*
G01*
X4802652Y2750799D01*
X8387100Y2750799D02*
G01*
X6594876Y2750799D01*
X10330200Y2357099D02*
G01*
X9936500Y2750799D01*
X8387100Y2750799D01*
X6256040Y6217899D02*
G01*
X6484894Y6217899D01*
X6484894Y6217899D02*
G01*
X6562110Y6295115D01*
X10476250Y6295115D01*
X11581150Y5189961D01*
X11581150Y4972283D01*
X11391666Y4782799D01*
X11244600Y4782799D01*
X8018038Y3277849D02*
G01*
X8018038Y3202665D01*
X8175518Y3045185D01*
X9369826Y3045185D01*
X10703580Y4378939D01*
X2617998Y3356335D02*
G01*
X2617998Y3277849D01*
X4418096Y3356335D02*
G01*
X4261124Y3513053D01*
X2774716Y3513053D01*
X2617998Y3356335D01*
X2617998Y3356335D02*
G01*
X2459248Y3515085D01*
X976650Y3515085D01*
X817900Y3356335D01*
X817900Y3277849D01*
X4418096Y3356335D02*
G01*
X4418096Y3277849D01*
X6217940Y3356335D02*
G01*
X6059190Y3515339D01*
X4576846Y3515339D01*
X4418096Y3356335D01*
X6217940Y3356335D02*
G01*
X6217940Y3277849D01*
X8018038Y3277849D02*
G01*
X7782580Y3513307D01*
X6374912Y3513307D01*
X6217940Y3356335D01*
X8802898Y3360145D02*
G01*
X8720856Y3277849D01*
X8272038Y3277849D01*
X5739404Y6066007D02*
G01*
X5968258Y6066007D01*
X5968258Y6066007D02*
G01*
X7378466Y4655799D01*
X8272800Y4655799D01*
X12095500Y5087599D02*
G01*
X12489200Y5087599D01*
X11562100Y1150599D02*
G01*
X11687068Y1150599D01*
X12243582Y1707113D01*
X6807728Y6066007D02*
G01*
X7036582Y6066007D01*
X11333500Y5087599D02*
G01*
X8015244Y5087599D01*
X7036582Y6066007D01*
X11562100Y2141199D02*
G01*
X11590294Y2141199D01*
X11913890Y2464795D01*
X11913890Y3133831D01*
X12862326Y4082267D01*
X12862326Y4516099D01*
X10330200Y1849099D02*
G01*
X10392176Y1849099D01*
X10553212Y2010135D01*
X10553212Y2254737D01*
X10769620Y2471399D01*
X10800100Y2471399D01*
X10330200Y1087099D02*
G01*
X10736600Y1087099D01*
X10800100Y1150599D01*
X10330200Y833099D02*
G01*
X10787400Y833099D01*
X10800100Y820399D01*
X10330200Y579099D02*
G01*
X10419100Y490199D01*
X10800100Y490199D01*
X10330200Y1341099D02*
G01*
X10402844Y1341099D01*
X10551434Y1489689D01*
X10551434Y1582653D01*
X10779780Y1810999D01*
X10800100Y1810999D01*
X9568200Y1087099D02*
G01*
X9458472Y1087099D01*
X9371350Y1174221D01*
D13*
G01*
X4802525Y2750799D03*
G01*
X4802525Y1988799D03*
G01*
X3010250Y2750774D03*
G01*
X3010250Y1988774D03*
G01*
X1217950Y2750799D03*
G01*
X1217950Y1988799D03*
G01*
X6594800Y2750799D03*
G01*
X6594800Y1988799D03*
G01*
X8387100Y2750799D03*
G01*
X8387100Y1988799D03*
G01*
X10482600Y4782799D03*
G01*
X11244600Y4782799D03*
D14*
G01*
X1071900Y3277925D03*
G01*
X817900Y3277925D03*
D13*
G01*
X1071925Y4655774D03*
G01*
X1071925Y3893774D03*
D14*
G01*
X2871922Y3277951D03*
G01*
X2617922Y3277951D03*
D13*
G01*
X2872150Y4655774D03*
G01*
X2872150Y3893774D03*
D14*
G01*
X4671969Y3277951D03*
G01*
X4417969Y3277951D03*
D13*
G01*
X4672350Y4655774D03*
G01*
X4672350Y3893774D03*
D14*
G01*
X6471991Y3277951D03*
G01*
X6217991Y3277951D03*
D13*
G01*
X6472575Y4655774D03*
G01*
X6472575Y3893774D03*
D14*
G01*
X8272012Y3277925D03*
G01*
X8018012Y3277925D03*
D13*
G01*
X8272800Y4655774D03*
G01*
X8272800Y3893774D03*
D15*
G01*
X695980Y411485D03*
G01*
X1193845Y411485D03*
G01*
X1193845Y1661165D03*
G01*
X695980Y1661165D03*
G01*
X2496002Y411459D03*
G01*
X2993842Y411459D03*
G01*
X2993842Y1661139D03*
G01*
X2496002Y1661139D03*
G01*
X4295998Y411485D03*
G01*
X4793838Y411485D03*
G01*
X4793838Y1661165D03*
G01*
X4295998Y1661165D03*
G01*
X6095969Y411459D03*
G01*
X6593809Y411459D03*
G01*
X6593809Y1661139D03*
G01*
X6095969Y1661139D03*
G01*
X7895991Y411459D03*
G01*
X8393831Y411459D03*
G01*
X8393831Y1661139D03*
G01*
X7895991Y1661139D03*
G01*
X10703580Y3129259D03*
G01*
X11201420Y3129259D03*
G01*
X11201420Y4378939D03*
G01*
X10703580Y4378939D03*
D14*
G01*
X12489200Y5087599D03*
G01*
X12743200Y5087599D03*
D16*
G01*
X1999000Y6217899D03*
G01*
X934740Y6217899D03*
G01*
X5191780Y6217899D03*
G01*
X1465600Y6066109D03*
G01*
X4127520Y6217899D03*
G01*
X2534025Y6066083D03*
G01*
X3602451Y6066083D03*
G01*
X4670851Y6066083D03*
G01*
X5739277Y6066083D03*
G01*
X6256040Y6217899D03*
G01*
X6807677Y6066083D03*
G01*
X3063260Y6217899D03*
D13*
G01*
X10800100Y2141199D03*
G01*
X11562100Y2141199D03*
G01*
X10800100Y1480799D03*
G01*
X11562100Y1480799D03*
G01*
X10800100Y2471399D03*
G01*
X11562100Y2471399D03*
G01*
X10800100Y1150599D03*
G01*
X11562100Y1150599D03*
G01*
X10800100Y820399D03*
G01*
X11562100Y820399D03*
G01*
X10800100Y490199D03*
G01*
X11562100Y490199D03*
D16*
G01*
X7675900Y6065804D03*
G01*
X8086542Y6065804D03*
G01*
X8497158Y6065804D03*
G01*
X8907800Y6065804D03*
D13*
G01*
X10800100Y1810999D03*
G01*
X11562100Y1810999D03*
G01*
X11333500Y5087599D03*
G01*
X12095500Y5087599D03*
D16*
G01*
X10317500Y6065804D03*
G36*
X12064202Y3052097D02*
G01*
X12184202Y3052097D01*
X12184202Y2932097D01*
X12064202Y2932097D01*
G37*
D18*
G01*
X12370201Y2992099D03*
G01*
X12616200Y2992099D03*
G01*
X12862199Y2992099D03*
G01*
X13108198Y2992099D03*
G01*
X13108198Y4516099D03*
G01*
X12862199Y4516099D03*
G01*
X12616200Y4516099D03*
G01*
X12370201Y4516099D03*
G01*
X12124202Y4516099D03*
D16*
G01*
X9848743Y6065804D03*
D19*
G01*
X9568200Y2357099D03*
D20*
G01*
X9568200Y2103099D03*
G01*
X9568200Y1849099D03*
G01*
X9568200Y1595099D03*
G01*
X9568200Y1341099D03*
G01*
X9568200Y1087099D03*
G01*
X9568200Y833099D03*
G01*
X9568200Y579099D03*
G01*
X10330200Y579099D03*
G01*
X10330200Y833099D03*
G01*
X10330200Y1087099D03*
G01*
X10330200Y1341099D03*
G01*
X10330200Y1595099D03*
G01*
X10330200Y1849099D03*
G01*
X10330200Y2103099D03*
G01*
X10330200Y2357099D03*
D12*
G01*
X9066042Y2103099D03*
G01*
X8802898Y3360145D03*
G01*
X12243582Y1707113D03*
G01*
X9371350Y1174221D03*
M02*
