M48
METRIC,LZ,0000.00
;FILE_FORMAT=4:2
;TYPE=PLATED
;Layer: Drill PTH
;EasyEDA v6.4.12, 2020-12-31T14:29:20+01:00
;6604612f69a4476882a07405e2b540c3,2d81dc3172f949189a8efcc8dd8a18f6,10
;Gerber Generator version 0.2
;Holesize 1 = 0.310 mm
T01C0.310
;Holesize 2 = 0.701 mm
T02C0.701
;Holesize 3 = 0.712 mm
T03C0.712
;Holesize 4 = 0.889 mm
T04C0.889
;Holesize 5 = 0.900 mm
T05C0.900
;Holesize 6 = 0.901 mm
T06C0.901
;Holesize 7 = 1.199 mm
T07C1.199
%
G05
G90
T01
X009066Y002103
X008803Y003360
X012244Y001707
X009371Y001174
T02
X012124Y002992
X012370Y002992
X012616Y002992
X012862Y002992
X013108Y002992
X013108Y004516
X012862Y004516
X012616Y004516
X012370Y004516
X012124Y004516
T03
X009568Y002357
X009568Y002103
X009568Y001849
X009568Y001595
X009568Y001341
X009568Y001087
X009568Y000833
X009568Y000579
X010330Y000579
X010330Y000833
X010330Y001087
X010330Y001341
X010330Y001595
X010330Y001849
X010330Y002103
X010330Y002357
T04
X001999Y006218
X000935Y006218
X005192Y006218
X001466Y006066
X004128Y006218
X002534Y006066
X003602Y006066
X004671Y006066
X005739Y006066
X006256Y006218
X006808Y006066
X003063Y006218
X007676Y006066
X008087Y006066
X008497Y006066
X008908Y006066
X010318Y006066
X009849Y006066
T05
X004803Y002751
X004803Y001989
X003010Y002751
X003010Y001989
X001218Y002751
X001218Y001989
X006595Y002751
X006595Y001989
X008387Y002751
X008387Y001989
X010483Y004783
X011245Y004783
X001072Y004656
X001072Y003894
X002872Y004656
X002872Y003894
X004672Y004656
X004672Y003894
X006473Y004656
X006473Y003894
X008273Y004656
X008273Y003894
X010800Y002141
X011562Y002141
X010800Y001481
X011562Y001481
X010800Y002471
X011562Y002471
X010800Y001151
X011562Y001151
X010800Y000820
X011562Y000820
X010800Y000490
X011562Y000490
X010800Y001811
X011562Y001811
X011334Y005088
X012096Y005088
T06
X001072Y003278
X000818Y003278
X002872Y003278
X002618Y003278
X004672Y003278
X004418Y003278
X006472Y003278
X006218Y003278
X008272Y003278
X008018Y003278
X012489Y005088
X012743Y005088
T07
X000696Y000411
X001194Y000411
X001194Y001661
X000696Y001661
X002496Y000411
X002994Y000411
X002994Y001661
X002496Y001661
X004296Y000411
X004794Y000411
X004794Y001661
X004296Y001661
X006096Y000411
X006594Y000411
X006594Y001661
X006096Y001661
X007896Y000411
X008394Y000411
X008394Y001661
X007896Y001661
X010704Y003129
X011201Y003129
X011201Y004379
X010704Y004379
M30
